<?xml version="1.0" encoding="UTF-8"?>
<svg version="1.1" xmlns="http://www.w3.org/2000/svg" width="768" height="320">
<path d="M0 0 C253.44 0 506.88 0 768 0 C768 105.6 768 211.2 768 320 C514.56 320 261.12 320 0 320 C0 214.4 0 108.8 0 0 Z " fill="#301534" transform="translate(0,0)"/>
<path d="M0 0 C36.96 0 73.92 0 112 0 C108.09754205 3.90245795 104.52184195 7.05250574 100.125 10.25 C99.46282471 10.73178711 98.80064941 11.21357422 98.1184082 11.70996094 C92.06795969 16.05004798 85.80738171 19.92507865 79.35644531 23.640625 C76.60359488 25.2286763 73.86071768 26.83340228 71.1171875 28.4375 C52.04392683 39.55344491 32.67762995 50.06803928 13.125 60.3125 C12.04210693 60.88242676 10.95921387 61.45235352 9.84350586 62.03955078 C8.34702515 62.81854736 8.34702515 62.81854736 6.8203125 63.61328125 C5.93617676 64.07516846 5.05204102 64.53705566 4.14111328 65.01293945 C2 66 2 66 0 66 C0 44.22 0 22.44 0 0 Z " fill="#311536" transform="translate(0,0)"/>
<path d="M0 0 C1.98 0.495 1.98 0.495 4 1 C3.38253906 1.66644531 2.76507813 2.33289063 2.12890625 3.01953125 C-2.99368939 8.59434995 -7.9229221 14.25481696 -12.67578125 20.15234375 C-14.6726002 22.59886646 -16.71513743 24.99565509 -18.78295898 27.38208008 C-26.01251285 35.76110276 -32.60249538 44.60164296 -39.1640625 53.50830078 C-40.32744599 55.08722257 -41.49375791 56.66399428 -42.6640625 58.23779297 C-55.70688937 75.782162 -67.93491734 94.13060418 -78.87939453 113.06201172 C-79.68881192 114.46182767 -80.50287456 115.8589611 -81.31982422 117.25439453 C-112.39966615 170.3593213 -133.77013212 226.48420296 -149 286 C-133.81023792 287.46220813 -118.59973978 288.543663 -103.375 289.5625 C-102.42912018 289.62643951 -101.48324036 289.69037903 -100.50869751 289.7562561 C-94.89136489 290.13475965 -89.2732986 290.49649103 -83.65356445 290.83755493 C-81.972529 290.94046403 -80.29167129 291.04635626 -78.61108398 291.15634155 C-61.10985678 292.28852577 -43.57853727 292.18736843 -26.04882812 292.18530273 C-22.53770749 292.18522193 -19.02671863 292.19210495 -15.515625 292.20581055 C6.17060781 292.28913644 27.67956309 291.83236739 49.31309509 290.25984192 C54.50715358 289.89378037 59.70403347 289.5866823 64.90193176 289.28074646 C78.01889149 288.48511674 91.0182379 287.24665733 104.04345703 285.52001953 C107.00717777 285.13048941 109.97136016 284.74877611 112.93701172 284.37451172 C136.16547728 281.44229955 159.26462819 278.22876351 182.24560547 273.73242188 C185.91187454 273.01719186 189.58212869 272.32693856 193.25390625 271.640625 C221.40384067 266.29221346 249.61012655 259.83703511 276.88183594 250.99853516 C280.60256935 249.80703816 284.33569729 248.65879411 288.0703125 247.51171875 C326.27339069 235.74554145 363.16554142 221.51691922 400 206 C400.33 207.32 400.66 208.64 401 210 C386.47438878 216.23421594 371.81373563 222.07460262 357.0625 227.75 C356.24482147 228.06542755 355.42714294 228.3808551 354.58468628 228.70584106 C337.67612741 235.22177477 320.634645 241.20191325 303.39672852 246.78710938 C300.80306307 247.62805976 298.21105809 248.47399202 295.61914062 249.3203125 C286.12679901 252.4094389 276.61735325 255.32213829 267 258 C264.89810267 258.60691451 262.79653969 259.21498816 260.6953125 259.82421875 C246.36798085 263.91431236 231.97599681 267.4932137 217.4375 270.75 C216.61630676 270.93436615 215.79511353 271.1187323 214.94903564 271.3086853 C198.32854198 275.02673928 181.67573188 278.62851896 164.8125 281.0625 C158.54933469 281.98013586 152.30377903 282.93219611 146.07701111 284.07470703 C136.5400565 285.8186325 126.98004483 287.10879192 117.35400391 288.25268555 C114.76524591 288.5606861 112.17752531 288.87645539 109.58984375 289.19335938 C37.0561853 297.99488242 -36.18642892 298.13486856 -109 293 C-110.48868591 292.89531403 -110.48868591 292.89531403 -112.00744629 292.78851318 C-144.97330471 290.44806988 -144.97330471 290.44806988 -150 289 C-150.12246094 290.24652344 -150.24492187 291.49304688 -150.37109375 292.77734375 C-150.998509 298.42408101 -152.01702632 303.98048328 -153.0625 309.5625 C-153.24876953 310.57119141 -153.43503906 311.57988281 -153.62695312 312.61914062 C-154.08179803 315.07996816 -154.53953118 317.54021974 -155 320 C-155.99 320 -156.98 320 -158 320 C-157.6059944 309.02694404 -155.42355426 298.6749111 -153 288 C-154.14339844 288.05027344 -155.28679687 288.10054688 -156.46484375 288.15234375 C-163.91444458 288.13930731 -171.23279791 286.77150249 -178.5625 285.5625 C-179.36123535 285.43195221 -180.1599707 285.30140442 -180.98291016 285.16690063 C-235.66445683 276.15245827 -294.41179985 261.84337907 -340 229 C-340.8677002 228.3802832 -340.8677002 228.3802832 -341.75292969 227.74804688 C-350.77965154 221.23476901 -359.13039425 213.86960575 -367 206 C-367.04063832 204.33382885 -367.042721 202.66611905 -367 201 C-366.071875 201.9590625 -366.071875 201.9590625 -365.125 202.9375 C-356.99726298 211.01983067 -348.23660984 218.23597579 -339 225 C-338.46375 225.39799805 -337.9275 225.79599609 -337.375 226.20605469 C-311.75192567 245.00760142 -279.97480881 257.08115817 -249.54052734 265.7097168 C-246.65048346 266.52977252 -243.76275002 267.3571416 -240.87670898 268.19116211 C-230.16726959 271.25645891 -219.41565775 273.78874606 -208.5 276 C-207.26354233 276.25379929 -207.26354233 276.25379929 -206.00210571 276.51272583 C-192.16214859 279.34356205 -178.28084417 281.63279922 -164.28515625 283.54101562 C-163.60334793 283.63443741 -162.92153961 283.72785919 -162.21907043 283.82411194 C-160.38978834 284.07245691 -158.55954838 284.31371756 -156.72924805 284.55444336 C-154 285 -154 285 -152 286 C-151.87625 285.16984375 -151.7525 284.3396875 -151.625 283.484375 C-144.55158439 241.22071675 -127.53391561 199.48263394 -109 161 C-108.43410156 159.824375 -107.86820312 158.64875 -107.28515625 157.4375 C-98.93667357 140.16662519 -89.99690656 123.38609152 -80 107 C-79.38092773 105.98147949 -78.76185547 104.96295898 -78.12402344 103.91357422 C-70.20576962 90.93273085 -61.97658172 78.27214037 -53 66 C-52.15888672 64.84226074 -52.15888672 64.84226074 -51.30078125 63.66113281 C-43.7476937 53.26938488 -36.04817652 43.01380118 -28 33 C-27.25492187 32.071875 -26.50984375 31.14375 -25.7421875 30.1875 C-17.41263321 19.91736854 -8.74622412 9.91649355 0 0 Z " fill="#A226DB" transform="translate(367,0)"/>
<path d="M0 0 C16.5 0 33 0 50 0 C45.97615932 4.6944808 41.92424611 9.26125649 37.6875 13.75 C32.18921536 19.63575026 26.98591471 25.6701944 22 32 C21.46197754 32.67611328 20.92395508 33.35222656 20.36962891 34.04882812 C13.88600151 42.20250759 7.4787034 50.26494594 2.13671875 59.2265625 C1.57404297 60.10441406 1.57404297 60.10441406 1 61 C0.67 61 0.34 61 0 61 C0 40.87 0 20.74 0 0 Z " fill="#301534" transform="translate(0,0)"/>
<path d="M0 0 C2.3125 0.1875 2.3125 0.1875 4 1 C3.21496094 1.7734375 2.42992187 2.546875 1.62109375 3.34375 C-4.14866729 9.05280576 -9.76415004 14.79161636 -15 21 C-15.77214844 21.88300781 -16.54429688 22.76601563 -17.33984375 23.67578125 C-23.1850927 30.40105454 -28.64929522 37.37519571 -34 44.5 C-34.64710937 45.36077148 -35.29421875 46.22154297 -35.9609375 47.10839844 C-38.84708578 50.98247405 -41.55899249 54.82536404 -44 59 C-29.98724009 52.59231764 -16.43892516 45.53296552 -3 38 C-1.68878174 37.26692627 -1.68878174 37.26692627 -0.35107422 36.51904297 C30.04281054 20.70926284 30.04281054 20.70926284 57 0 C58.66617115 -0.04063832 60.33388095 -0.042721 62 0 C58.31316334 3.86770035 54.44313976 7.10973995 50.125 10.25 C49.46282471 10.73178711 48.80064941 11.21357422 48.1184082 11.70996094 C42.06795969 16.05004798 35.80738171 19.92507865 29.35644531 23.640625 C26.60359488 25.2286763 23.86071768 26.83340228 21.1171875 28.4375 C2.04392683 39.55344491 -17.32237005 50.06803928 -36.875 60.3125 C-37.95789307 60.88242676 -39.04078613 61.45235352 -40.15649414 62.03955078 C-41.65297485 62.81854736 -41.65297485 62.81854736 -43.1796875 63.61328125 C-44.06382324 64.07516846 -44.94795898 64.53705566 -45.85888672 65.01293945 C-48 66 -48 66 -50 66 C-49.58697309 60.36716747 -48.00266448 56.83548733 -44.625 52.4375 C-44.17946777 51.83744141 -43.73393555 51.23738281 -43.27490234 50.61914062 C-41.86565138 48.73358545 -40.43567196 46.86549336 -39 45 C-38.55269531 44.41234863 -38.10539062 43.82469727 -37.64453125 43.21923828 C-27.47498072 29.88475065 -16.50590653 17.19662446 -5 5 C-4.15308594 4.04222656 -3.30617187 3.08445313 -2.43359375 2.09765625 C-1.22896484 1.05931641 -1.22896484 1.05931641 0 0 Z " fill="#A326DC" transform="translate(50,0)"/>
<path d="M0 0 C-0.72705078 1.93676758 -0.72705078 1.93676758 -2 4 C-3.96435547 4.71362305 -3.96435547 4.71362305 -6.3671875 5.01171875 C-7.68819458 5.18828003 -7.68819458 5.18828003 -9.03588867 5.3684082 C-9.97279541 5.4737085 -10.90970215 5.57900879 -11.875 5.6875 C-12.82286377 5.80633545 -13.77072754 5.9251709 -14.74731445 6.04760742 C-17.49631383 6.38503905 -20.2471657 6.69568744 -23 7 C-23.70334473 7.08411133 -24.40668945 7.16822266 -25.13134766 7.25488281 C-32.27295923 8.10744438 -32.27295923 8.10744438 -35 8 C-35.66 7.34 -36.32 6.68 -37 6 C-33.67302865 3.7820191 -31.71541583 3.48031537 -27.79296875 2.9296875 C-25.9531543 2.66865234 -25.9531543 2.66865234 -24.07617188 2.40234375 C-22.79291016 2.22832031 -21.50964844 2.05429687 -20.1875 1.875 C-18.91583984 1.69324219 -17.64417969 1.51148438 -16.33398438 1.32421875 C-10.83898226 0.55854533 -5.55730583 -0.10803105 0 0 Z " fill="#9A25CF" transform="translate(518,280)"/>
<path d="M0 0 C-1 2 -1 2 -3.5625 3.125 C-7.58289462 4.14837318 -10.86509813 4.14258282 -15 4 C-12.69989666 1.3165461 -10.94306063 0.46156586 -7.5 -0.25 C-6.7265625 -0.42015625 -5.953125 -0.5903125 -5.15625 -0.765625 C-3 -1 -3 -1 0 0 Z " fill="#A626E1" transform="translate(586,268)"/>
<path d="M0 0 C-4.29 0.66 -8.58 1.32 -13 2 C-12.67 0.68 -12.34 -0.64 -12 -2 C-6.78684686 -3.04263063 -4.52378604 -3.01585736 0 0 Z " fill="#9A25CF" transform="translate(575,273)"/>
<path d="M0 0 C-2.39509338 2.89932357 -4.31245243 3.50168276 -8 4 C-7.67 2.68 -7.34 1.36 -7 0 C-2.25 -1.125 -2.25 -1.125 0 0 Z " fill="#A526E0" transform="translate(626,258)"/>
<path d="M0 0 C2.86724686 0.57344937 3.8614515 0.8614515 6 3 C3.69 3.33 1.38 3.66 -1 4 C-0.67 2.68 -0.34 1.36 0 0 Z " fill="#9824CC" transform="translate(586,266)"/>
</svg>
